<svg width="37" height="37" viewBox="0 0 37 37" fill="none" xmlns="http://www.w3.org/2000/svg">
    <path fill-rule="evenodd" clip-rule="evenodd" d="M18.5 37C28.7173 37 37 28.7173 37 18.5C37 8.28271 28.7173 0 18.5 0C8.28275 0 0 8.28271 0 18.5C0 28.7173 8.28275 37 18.5 37ZM26.6433 12.6881C27.4733 12.5844 28.2642 12.3542 29 12.0126C28.45 12.8728 27.7542 13.6285 26.9525 14.2343C27.2125 20.2703 22.9083 27 15.29 27C12.9733 27 10.8158 26.2897 9 25.072C11.1767 25.3405 13.35 24.7085 15.075 23.2939C13.2783 23.259 11.7633 22.0187 11.2417 20.3138C11.885 20.4429 12.5175 20.4044 13.095 20.2406C11.1217 19.8265 9.75916 17.9666 9.80417 15.9784C10.3567 16.3 10.99 16.4927 11.6617 16.5154C9.83499 15.2375 9.3175 12.7142 10.3925 10.7853C12.4167 13.3818 15.44 15.0902 18.8492 15.2689C18.2508 12.5852 20.1975 10 22.8467 10C24.0267 10 25.0942 10.5212 25.8417 11.3553C26.7767 11.1627 27.655 10.8054 28.4475 10.3138C28.1417 11.3162 27.4908 12.1572 26.6433 12.6881Z" fill="white"/>
</svg>
